<?xml version="1.0" encoding="UTF-8"?>
<svg width="374px" height="88px" viewBox="0 0 374 88" version="1.1" xmlns="http://www.w3.org/2000/svg" xmlns:xlink="http://www.w3.org/1999/xlink">
    <!-- Generator: Sketch 55.2 (78181) - https://sketchapp.com -->
    <title>LaunchScreen_logo</title>
    <desc>Created with Sketch.</desc>
    <g id="2.2.5" stroke="none" stroke-width="1" fill="none" fill-rule="evenodd">
        <g id="#3.0.0#闪屏" transform="translate(-188.000000, -1408.000000)" fill="#FFFFFF">
            <g id="MathWallet_Logo_Horizontal" transform="translate(188.000000, 1408.000000)">
                <rect id="Rectangle" opacity="0" x="0" y="0" width="374" height="88"></rect>
                <path d="M117.5625,58.3275 L117.5625,30.415 L122.786125,30.415 L131.2795,43.613625 L139.772875,30.415 L144.9965,30.415 L144.9965,58.3275 L140.091875,58.3275 L140.091875,38.31025 L131.2795,51.469 L131.12,51.469 L122.387375,38.39 L122.387375,58.3275 L117.5625,58.3275 Z M157.608,58.766125 C153.660375,58.766125 150.151375,56.49325 150.151375,52.2665 L150.151375,52.18675 C150.151375,47.641 153.70025,45.408 158.844125,45.408 C161.19675,45.408 162.8715,45.766875 164.506375,46.28525 L164.506375,45.766875 C164.506375,42.77625 162.672125,41.18125 159.28275,41.18125 C156.930125,41.18125 155.175625,41.699625 153.261625,42.497125 L151.985625,38.709 C154.298375,37.67225 156.57125,36.994375 159.92075,36.994375 C163.070875,36.994375 165.4235,37.83175 166.898875,39.347 C168.454,40.86225 169.17175,43.09525 169.17175,45.846625 L169.17175,58.3275 L164.4665,58.3275 L164.4665,55.69575 C163.031,57.410375 160.837875,58.766125 157.608,58.766125 Z M158.96375,55.257125 C162.15375,55.257125 164.586125,53.422875 164.586125,50.75125 L164.586125,49.31575 C163.35,48.83725 161.715125,48.478375 159.801125,48.478375 C156.690875,48.478375 154.856625,49.79425 154.856625,51.987375 L154.856625,52.067125 C154.856625,54.10075 156.651,55.257125 158.96375,55.257125 Z M181.743375,58.686375 C178.1945,58.686375 175.682375,57.13125 175.682375,52.50575 L175.682375,41.4205 L173.01075,41.4205 L173.01075,37.2735 L175.682375,37.2735 L175.682375,31.491625 L180.50725,31.491625 L180.50725,37.2735 L186.1695,37.2735 L186.1695,41.4205 L180.50725,41.4205 L180.50725,51.748125 C180.50725,53.62225 181.46425,54.379875 183.099125,54.379875 C184.17575,54.379875 185.13275,54.140625 186.08975,53.662125 L186.08975,57.60975 C184.8935,58.287625 183.577625,58.686375 181.743375,58.686375 Z M191.005375,58.3275 L191.005375,29.21875 L195.83025,29.21875 L195.83025,40.503375 C197.186,38.5495 199.139875,36.834875 202.409625,36.834875 C207.15475,36.834875 209.906125,40.024875 209.906125,44.889625 L209.906125,58.3275 L205.08125,58.3275 L205.08125,46.365 C205.08125,43.09525 203.446375,41.221125 200.575375,41.221125 C197.784125,41.221125 195.83025,43.175 195.83025,46.44475 L195.83025,58.3275 L191.005375,58.3275 Z M235.687375,58.526875 L225.957875,30.415 L231.26125,30.415 L237.920375,51.110125 L244.778875,30.33525 L248.925875,30.33525 L255.784375,51.110125 L262.4435,30.415 L267.587375,30.415 L257.89775,58.526875 L253.631125,58.526875 L246.772625,38.46975 L239.914125,58.526875 L235.687375,58.526875 Z M275.254375,58.766125 C271.30675,58.766125 267.79775,56.49325 267.79775,52.2665 L267.79775,52.18675 C267.79775,47.641 271.346625,45.408 276.4905,45.408 C278.843125,45.408 280.517875,45.766875 282.15275,46.28525 L282.15275,45.766875 C282.15275,42.77625 280.3185,41.18125 276.929125,41.18125 C274.5765,41.18125 272.822,41.699625 270.908,42.497125 L269.632,38.709 C271.94475,37.67225 274.217625,36.994375 277.567125,36.994375 C280.71725,36.994375 283.069875,37.83175 284.54525,39.347 C286.100375,40.86225 286.818125,43.09525 286.818125,45.846625 L286.818125,58.3275 L282.112875,58.3275 L282.112875,55.69575 C280.677375,57.410375 278.48425,58.766125 275.254375,58.766125 Z M276.610125,55.257125 C279.800125,55.257125 282.2325,53.422875 282.2325,50.75125 L282.2325,49.31575 C280.996375,48.83725 279.3615,48.478375 277.4475,48.478375 C274.33725,48.478375 272.503,49.79425 272.503,51.987375 L272.503,52.067125 C272.503,54.10075 274.297375,55.257125 276.610125,55.257125 Z M292.810375,58.3275 L292.810375,29.21875 L297.63525,29.21875 L297.63525,58.3275 L292.810375,58.3275 Z M304.145875,58.3275 L304.145875,29.21875 L308.97075,29.21875 L308.97075,58.3275 L304.145875,58.3275 Z M324.852,58.806 C318.751125,58.806 314.045875,54.379875 314.045875,47.88025 L314.045875,47.8005 C314.045875,41.779375 318.3125,36.834875 324.333625,36.834875 C331.032625,36.834875 334.422,42.098375 334.422,48.159375 C334.422,48.598 334.382125,49.036625 334.34225,49.515125 L318.87075,49.515125 C319.389125,52.944375 321.8215,54.858375 324.93175,54.858375 C327.284375,54.858375 328.959125,53.981125 330.633875,52.34625 L333.465,54.858375 C331.47125,57.250875 328.719875,58.806 324.852,58.806 Z M318.830875,46.325125 L329.637,46.325125 C329.318,43.214875 327.48375,40.7825 324.29375,40.7825 C321.343,40.7825 319.2695,43.055375 318.830875,46.325125 Z M346.275875,58.686375 C342.727,58.686375 340.214875,57.13125 340.214875,52.50575 L340.214875,41.4205 L337.54325,41.4205 L337.54325,37.2735 L340.214875,37.2735 L340.214875,31.491625 L345.03975,31.491625 L345.03975,37.2735 L350.702,37.2735 L350.702,41.4205 L345.03975,41.4205 L345.03975,51.748125 C345.03975,53.62225 345.99675,54.379875 347.631625,54.379875 C348.70825,54.379875 349.66525,54.140625 350.62225,53.662125 L350.62225,57.60975 C349.426,58.287625 348.110125,58.686375 346.275875,58.686375 Z M78.9573184,39.710689 C77.3918559,38.1452266 77.3918559,35.6071105 78.9573184,34.0416481 C80.5227808,32.4761856 83.0608969,32.4761856 84.6263594,34.0416481 C86.1918218,35.6071105 86.1918218,38.1452266 84.6263594,39.710689 C83.0608969,41.2761515 80.5227808,41.2761515 78.9573184,39.710689 Z M65.493346,53.1746614 C64.3192492,52.0005646 64.3192492,50.0969775 65.493346,48.9228807 C66.6674429,47.7487838 68.5710299,47.7487838 69.7451268,48.9228807 C70.9192236,50.0969775 70.9192236,52.0005646 69.7451268,53.1746614 C68.5710299,54.3487582 66.6674429,54.3487582 65.493346,53.1746614 Z M86.7522497,46.0883602 C85.5781529,44.9142633 85.5781529,43.0106762 86.7522497,41.8365794 C87.9263466,40.6624826 89.8299336,40.6624826 91.0040305,41.8365794 C92.1781273,43.0106762 92.1781273,44.9142633 91.0040305,46.0883602 C89.8299336,47.262457 87.9263466,47.262457 86.7522497,46.0883602 Z M79.6659485,53.1746614 C78.4918517,52.0005646 78.4918517,50.0969775 79.6659485,48.9228807 C80.8400453,47.7487838 82.7436324,47.7487838 83.9177292,48.9228807 C85.0918261,50.0969775 85.0918261,52.0005646 83.9177292,53.1746614 C82.7436324,54.3487582 80.8400453,54.3487582 79.6659485,53.1746614 Z M94.5471811,52.4660313 C93.7644499,51.6833 93.7644499,50.414242 94.5471811,49.6315108 C95.3299123,48.8487796 96.5989704,48.8487796 97.3817016,49.6315108 C98.1644328,50.414242 98.1644328,51.6833 97.3817016,52.4660313 C96.5989704,53.2487625 95.3299123,53.2487625 94.5471811,52.4660313 Z M87.4608799,59.5523325 C86.6781486,58.7696013 86.6781486,57.5005432 87.4608799,56.717812 C88.2436111,55.9350808 89.5126691,55.9350808 90.2954004,56.717812 C91.0781316,57.5005432 91.0781316,58.7696013 90.2954004,59.5523325 C89.5126691,60.3350637 88.2436111,60.3350637 87.4608799,59.5523325 Z M71.8710171,46.7969903 C70.3055547,45.2315278 70.3055547,42.6934117 71.8710171,41.1279493 C73.4364796,39.5624869 75.9745957,39.5624869 77.5400581,41.1279493 C79.1055206,42.6934117 79.1055206,45.2315278 77.5400581,46.7969903 C75.9745957,48.3624527 73.4364796,48.3624527 71.8710171,46.7969903 Z M71.8710171,32.6243878 C70.3055547,31.0589254 70.3055547,28.5208093 71.8710171,26.9553468 C73.4364796,25.3898844 75.9745957,25.3898844 77.5400581,26.9553468 C79.1055206,28.5208093 79.1055206,31.0589254 77.5400581,32.6243878 C75.9745957,34.1898503 73.4364796,34.1898503 71.8710171,32.6243878 Z M64.7847159,39.710689 C63.2192535,38.1452266 63.2192535,35.6071105 64.7847159,34.0416481 C66.3501784,32.4761856 68.8882945,32.4761856 70.4537569,34.0416481 C72.0192193,35.6071105 72.0192193,38.1452266 70.4537569,39.710689 C68.8882945,41.2761515 66.3501784,41.2761515 64.7847159,39.710689 Z M50.5462431,39.710689 C48.9807807,38.1452266 48.9807807,35.6071105 50.5462431,34.0416481 C52.1117055,32.4761856 54.6498216,32.4761856 56.2152841,34.0416481 C57.7807465,35.6071105 57.7807465,38.1452266 56.2152841,39.710689 C54.6498216,41.2761515 52.1117055,41.2761515 50.5462431,39.710689 Z M37.0822708,53.1746614 C35.9081739,52.0005646 35.9081739,50.0969775 37.0822708,48.9228807 C38.2563676,47.7487838 40.1599547,47.7487838 41.3340515,48.9228807 C42.5081483,50.0969775 42.5081483,52.0005646 41.3340515,53.1746614 C40.1599547,54.3487582 38.2563676,54.3487582 37.0822708,53.1746614 Z M58.3411745,46.0883602 C57.1670776,44.9142633 57.1670776,43.0106762 58.3411745,41.8365794 C59.5152713,40.6624826 61.4188584,40.6624826 62.5929552,41.8365794 C63.767052,43.0106762 63.767052,44.9142633 62.5929552,46.0883602 C61.4188584,47.262457 59.5152713,47.262457 58.3411745,46.0883602 Z M51.2548732,53.1746614 C50.0807764,52.0005646 50.0807764,50.0969775 51.2548732,48.9228807 C52.4289701,47.7487838 54.3325571,47.7487838 55.506654,48.9228807 C56.6807508,50.0969775 56.6807508,52.0005646 55.506654,53.1746614 C54.3325571,54.3487582 52.4289701,54.3487582 51.2548732,53.1746614 Z M23.6182984,52.4660313 C22.8355672,51.6833 22.8355672,50.414242 23.6182984,49.6315108 C24.4010296,48.8487796 25.6700877,48.8487796 26.4528189,49.6315108 C27.2355501,50.414242 27.2355501,51.6833 26.4528189,52.4660313 C25.6700877,53.2487625 24.4010296,53.2487625 23.6182984,52.4660313 Z M30.7045996,59.5523325 C29.9218684,58.7696013 29.9218684,57.5005432 30.7045996,56.717812 C31.4873309,55.9350808 32.7563889,55.9350808 33.5391201,56.717812 C34.3218514,57.5005432 34.3218514,58.7696013 33.5391201,59.5523325 C32.7563889,60.3350637 31.4873309,60.3350637 30.7045996,59.5523325 Z M59.0498046,59.5523325 C58.2670734,58.7696013 58.2670734,57.5005432 59.0498046,56.717812 C59.8325358,55.9350808 61.1015938,55.9350808 61.8843251,56.717812 C62.6670563,57.5005432 62.6670563,58.7696013 61.8843251,59.5523325 C61.1015938,60.3350637 59.8325358,60.3350637 59.0498046,59.5523325 Z M29.9959695,46.0883602 C28.8218727,44.9142633 28.8218727,43.0106762 29.9959695,41.8365794 C31.1700664,40.6624826 33.0736534,40.6624826 34.2477503,41.8365794 C35.4218471,43.0106762 35.4218471,44.9142633 34.2477503,46.0883602 C33.0736534,47.262457 31.1700664,47.262457 29.9959695,46.0883602 Z M43.4599419,46.7969903 C41.8944794,45.2315278 41.8944794,42.6934117 43.4599419,41.1279493 C45.0254043,39.5624869 47.5635204,39.5624869 49.1289829,41.1279493 C50.6944453,42.6934117 50.6944453,45.2315278 49.1289829,46.7969903 C47.5635204,48.3624527 45.0254043,48.3624527 43.4599419,46.7969903 Z M43.4599419,32.6243878 C41.8944794,31.0589254 41.8944794,28.5208093 43.4599419,26.9553468 C45.0254043,25.3898844 47.5635204,25.3898844 49.1289829,26.9553468 C50.6944453,28.5208093 50.6944453,31.0589254 49.1289829,32.6243878 C47.5635204,34.1898503 45.0254043,34.1898503 43.4599419,32.6243878 Z M36.3736406,39.710689 C34.8081782,38.1452266 34.8081782,35.6071105 36.3736406,34.0416481 C37.9391031,32.4761856 40.4772192,32.4761856 42.0426816,34.0416481 C43.6081441,35.6071105 43.6081441,38.1452266 42.0426816,39.710689 C40.4772192,41.2761515 37.9391031,41.2761515 36.3736406,39.710689 Z" id="Combined-Shape" fill-rule="nonzero"></path>
            </g>
        </g>
    </g>
</svg>