<?xml version="1.0" encoding="UTF-8"?>
<svg width="750px" height="1250px" viewBox="0 0 750 1250" version="1.1" xmlns="http://www.w3.org/2000/svg" xmlns:xlink="http://www.w3.org/1999/xlink">
    <!-- Generator: Sketch 55.2 (78181) - https://sketchapp.com -->
    <title>LaunchScreen_inmathwetrust</title>
    <desc>Created with Sketch.</desc>
    <defs>
        <linearGradient x1="50%" y1="0%" x2="50%" y2="100%" id="linearGradient-1">
            <stop stop-color="#FFFFFF" stop-opacity="0.5" offset="0%"></stop>
            <stop stop-color="#FAFAFA" stop-opacity="0" offset="100%"></stop>
        </linearGradient>
    </defs>
    <g id="2.2.5" stroke="none" stroke-width="1" fill="none" fill-rule="evenodd">
        <g id="#3.0.0#闪屏">
            <g id="Group-4">
                <path d="M117.364402,32.3470043 L117.890292,36.0132674 C117.944694,36.3581677 118.215799,36.6288375 118.561254,36.6831525 L122.233411,37.2172501 L118.561254,37.7422952 C118.392606,37.7685475 118.23756,37.8482095 118.116968,37.9686077 C117.99819,38.0899113 117.918399,38.244709 117.890292,38.4121803 L117.364402,42.0784434 L116.829446,38.4121803 C116.806778,38.2428985 116.726988,38.0862903 116.60277,37.9686077 C116.482178,37.8482095 116.327131,37.7685475 116.158484,37.7422952 L112.531662,37.2172501 L116.158484,36.6831525 C116.328038,36.6605213 116.484898,36.5808593 116.60277,36.45684 C116.728802,36.3400627 116.808592,36.1834544 116.829446,36.0132674 L117.364402,32.3470043 Z M112.823673,180 L113.35863,183.675316 C113.384924,183.843692 113.464714,183.99849 113.585306,184.118888 C113.704085,184.240192 113.860945,184.316233 114.029592,184.336148 L117.701749,184.870246 L114.029592,185.404343 C113.858224,185.428785 113.698644,185.508447 113.576239,185.630656 C113.454741,185.749244 113.378577,185.905852 113.35863,186.074229 L112.823673,189.740492 L112.288717,186.065176 C112.246102,185.71937 111.973184,185.44689 111.626822,185.404343 L108,184.870246 L111.626822,184.336148 C111.972277,184.281833 112.243382,184.011163 112.297784,183.666263 L112.823673,180 Z M578.366268,68 L579.390845,75.0790562 C579.441621,75.404041 579.593948,75.7054893 579.826064,75.9390438 C580.058181,76.1716931 580.36102,76.3210594 580.687434,76.3645114 L587.768805,77.3964966 L580.678367,78.4194293 C580.351047,78.4665023 580.049114,78.6194895 579.816997,78.8539493 C579.585787,79.0875039 579.436181,79.3889522 579.390845,79.713937 L578.366268,86.7839407 L577.377959,79.7048845 C577.280942,79.0395256 576.756866,78.516291 576.090437,78.4194293 L569,77.3964966 L576.090437,76.3645114 C576.433172,76.3273962 576.753239,76.1735036 576.997143,75.9299913 C577.231073,75.6973421 577.383399,75.3958938 577.432362,75.0700037 L578.366268,68 Z M443.725918,221.586535 L444.451283,226.619725 C444.488458,226.848754 444.596356,227.061488 444.759563,227.226243 C444.926397,227.392809 445.142192,227.500534 445.376122,227.534028 L450.408338,228.267281 L445.367055,228.991481 C445.137659,229.028596 444.924583,229.136321 444.759563,229.299266 C444.590915,229.464021 444.482111,229.681282 444.451283,229.914836 L443.725918,234.938974 L442.991487,229.905784 C442.915324,229.440485 442.550828,229.076574 442.084781,229.000533 L437.043499,228.276333 L442.084781,227.543081 C442.314178,227.505965 442.527254,227.398241 442.692274,227.235296 C442.862735,227.075066 442.971539,226.860522 443.000554,226.628778 L443.725918,221.586535 Z M73.7900583,46.8732551 L75.1138484,55.9981766 C75.1755044,56.4154969 75.3695394,56.802944 75.6669388,57.1025818 C75.9697784,57.4022196 76.3605685,57.5986589 76.7821866,57.6638369 L85.9127114,58.9855021 L76.7731195,60.3071673 C75.9099359,60.4339024 75.2317201,61.1110295 75.1047813,61.9728276 L73.7900583,71.0886967 L72.4572012,61.9637751 C72.3955452,61.5464548 72.2015102,61.1590077 71.9041108,60.8593699 C71.6030845,60.5615426 71.2159213,60.3651033 70.79793,60.2981148 L61.6583382,58.9855021 L70.79793,57.6547844 C71.2159213,57.5932274 71.6039913,57.3995038 71.9041108,57.1025818 C72.2096706,56.8038492 72.4073324,56.4118759 72.4662682,55.9891241 L73.7900583,46.8732551 Z M389.282041,380 L390.406356,387.757994 C390.465292,388.101084 390.630312,388.417921 390.877843,388.663244 C391.125373,388.910377 391.440907,389.076943 391.784548,389.143027 L399.555015,390.265537 L391.784548,391.388047 C391.440907,391.448699 391.124466,391.612549 390.877843,391.858777 C390.628499,392.103195 390.463478,392.420032 390.406356,392.764027 L389.282041,400.522021 L388.148659,392.764027 C388.089723,392.420937 387.924703,392.1041 387.677172,391.858777 C387.429641,391.611644 387.114108,391.445078 386.770466,391.378994 L379,390.265537 L386.770466,389.133974 C387.114108,389.075133 387.431455,388.910377 387.677172,388.663244 C387.926516,388.417921 388.094257,388.101989 388.157726,387.757994 L389.282041,380 Z M247.225015,329 L248.449067,337.445984 C248.509816,337.832526 248.691157,338.1901 248.965889,338.468917 C249.242434,338.746828 249.602397,338.927878 249.990466,338.984909 L258.440962,340.206997 L249.981399,341.429085 C249.181685,341.542241 248.553338,342.169579 248.44,342.96801 L247.225015,351.404941 L245.991895,342.958957 C245.934773,342.57151 245.753431,342.212126 245.475073,341.936025 C245.198528,341.658113 244.838566,341.477063 244.450496,341.420032 L236,340.206997 L244.423294,338.957752 C244.811364,338.900721 245.171327,338.719671 245.447872,338.441759 C245.72623,338.165658 245.907571,337.806273 245.964694,337.418826 L247.225015,329 Z M717.720117,400.431501 C716.217838,400.431501 715,399.215618 715,397.71575 C715,396.215883 716.217838,395 717.720117,395 C719.222396,395 720.440233,396.215883 720.440233,397.71575 C720.440233,399.215618 719.222396,400.431501 717.720117,400.431501 Z M447.099125,52.304756 C446.097606,52.304756 445.285714,51.4941674 445.285714,50.4942557 C445.285714,49.494344 446.097606,48.6837554 447.099125,48.6837554 C448.100645,48.6837554 448.912536,49.494344 448.912536,50.4942557 C448.912536,51.4941674 448.100645,52.304756 447.099125,52.304756 Z M55.574344,226.221415 C54.5728247,226.221415 53.7609329,225.410827 53.7609329,224.410915 C53.7609329,223.411003 54.5728247,222.600415 55.574344,222.600415 C56.5758633,222.600415 57.3877551,223.411003 57.3877551,224.410915 C57.3877551,225.410827 56.5758633,226.221415 55.574344,226.221415 Z M205.180758,151.882273 C204.179239,151.882273 203.367347,151.071684 203.367347,150.071773 C203.367347,149.071861 204.179239,148.261272 205.180758,148.261272 C206.182277,148.261272 206.994169,149.071861 206.994169,150.071773 C206.994169,151.071684 206.182277,151.882273 205.180758,151.882273 Z M63.8134111,421.621001 C62.8118918,421.621001 62,420.810412 62,419.8105 C62,418.810589 62.8118918,418 63.8134111,418 C64.8149304,418 65.6268222,418.810589 65.6268222,419.8105 C65.6268222,420.810412 64.8149304,421.621001 63.8134111,421.621001 Z M433.157434,127.440519 C432.155915,127.440519 431.344023,126.62993 431.344023,125.630018 C431.344023,124.630107 432.155915,123.819518 433.157434,123.819518 C434.158954,123.819518 434.970845,124.630107 434.970845,125.630018 C434.970845,126.62993 434.158954,127.440519 433.157434,127.440519 Z M561.813411,155.621001 C560.811892,155.621001 560,154.810412 560,153.8105 C560,152.810589 560.811892,152 561.813411,152 C562.81493,152 563.626822,152.810589 563.626822,153.8105 C563.626822,154.810412 562.81493,155.621001 561.813411,155.621001 Z M360.813411,115.621001 C359.811892,115.621001 359,114.810412 359,113.8105 C359,112.810589 359.811892,112 360.813411,112 C361.81493,112 362.626822,112.810589 362.626822,113.8105 C362.626822,114.810412 361.81493,115.621001 360.813411,115.621001 Z M217.813411,391.621001 C216.811892,391.621001 216,390.810412 216,389.8105 C216,388.810589 216.811892,388 217.813411,388 C218.81493,388 219.626822,388.810589 219.626822,389.8105 C219.626822,390.810412 218.81493,391.621001 217.813411,391.621001 Z M197.020408,93.0410129 C196.018889,93.0410129 195.206997,92.2304243 195.206997,91.2305126 C195.206997,90.2306009 196.018889,89.4200123 197.020408,89.4200123 C198.021927,89.4200123 198.833819,90.2306009 198.833819,91.2305126 C198.833819,92.2304243 198.021927,93.0410129 197.020408,93.0410129 Z M387.813411,53.6210006 C386.811892,53.6210006 386,52.810412 386,51.8105003 C386,50.8105886 386.811892,50 387.813411,50 C388.81493,50 389.626822,50.8105886 389.626822,51.8105003 C389.626822,52.810412 388.81493,53.6210006 387.813411,53.6210006 Z M691.813411,68.6210006 C690.811892,68.6210006 690,67.810412 690,66.8105003 C690,65.8105886 690.811892,65 691.813411,65 C692.81493,65 693.626822,65.8105886 693.626822,66.8105003 C693.626822,67.810412 692.81493,68.6210006 691.813411,68.6210006 Z M91.6449563,317.278211 C89.6319025,317.278211 88,315.648928 88,313.639106 C88,311.629283 89.6319025,310 91.6449563,310 C93.65801,310 95.2899125,311.629283 95.2899125,313.639106 C95.2899125,315.648928 93.65801,317.278211 91.6449563,317.278211 Z M643.720117,148.431501 C642.217838,148.431501 641,147.215618 641,145.71575 C641,144.215883 642.217838,143 643.720117,143 C645.222396,143 646.440233,144.215883 646.440233,145.71575 C646.440233,147.215618 645.222396,148.431501 643.720117,148.431501 Z M163.720117,329.431501 C162.217838,329.431501 161,328.215618 161,326.71575 C161,325.215883 162.217838,324 163.720117,324 C165.222396,324 166.440233,325.215883 166.440233,326.71575 C166.440233,328.215618 165.222396,329.431501 163.720117,329.431501 Z M351.16035,165.33428 C349.658071,165.33428 348.440233,164.118397 348.440233,162.61853 C348.440233,161.118662 349.658071,159.902779 351.16035,159.902779 C352.662629,159.902779 353.880466,161.118662 353.880466,162.61853 C353.880466,164.118397 352.662629,165.33428 351.16035,165.33428 Z M284.06414,65.8835083 C282.561861,65.8835083 281.344023,64.6676254 281.344023,63.1677578 C281.344023,61.6678903 282.561861,60.4520074 284.06414,60.4520074 C285.566419,60.4520074 286.784257,61.6678903 286.784257,63.1677578 C286.784257,64.6676254 285.566419,65.8835083 284.06414,65.8835083 Z M332.119534,287.669796 C330.617255,287.669796 329.399417,286.453913 329.399417,284.954045 C329.399417,283.454178 330.617255,282.238295 332.119534,282.238295 C333.621812,282.238295 334.83965,283.454178 334.83965,284.954045 C334.83965,286.453913 333.621812,287.669796 332.119534,287.669796 Z M534.720117,324.431501 C533.217838,324.431501 532,323.215618 532,321.71575 C532,320.215883 533.217838,319 534.720117,319 C536.222396,319 537.440233,320.215883 537.440233,321.71575 C537.440233,323.215618 536.222396,324.431501 534.720117,324.431501 Z M626.929475,179.963133 C625.927956,179.963133 625.116064,179.152544 625.116064,178.152632 C625.116064,177.152721 625.927956,176.342132 626.929475,176.342132 C627.930995,176.342132 628.742886,177.152721 628.742886,178.152632 C628.742886,179.152544 627.930995,179.963133 626.929475,179.963133 Z M627.720117,329.431501 C626.217838,329.431501 625,328.215618 625,326.71575 C625,325.215883 626.217838,324 627.720117,324 C629.222396,324 630.440233,325.215883 630.440233,326.71575 C630.440233,328.215618 629.222396,329.431501 627.720117,329.431501 Z M537.720117,441.431501 C536.217838,441.431501 535,440.215618 535,438.71575 C535,437.215883 536.217838,436 537.720117,436 C539.222396,436 540.440233,437.215883 540.440233,438.71575 C540.440233,440.215618 539.222396,441.431501 537.720117,441.431501 Z M699.813411,287.621001 C698.811892,287.621001 698,286.810412 698,285.8105 C698,284.810589 698.811892,284 699.813411,284 C700.81493,284 701.626822,284.810589 701.626822,285.8105 C701.626822,286.810412 700.81493,287.621001 699.813411,287.621001 Z M316.468863,230.93301 C315.657632,230.93301 315,230.276434 315,229.466505 C315,228.656577 315.657632,228 316.468863,228 C317.280094,228 317.937726,228.656577 317.937726,229.466505 C317.937726,230.276434 317.280094,230.93301 316.468863,230.93301 Z M557.813411,243.621001 C556.811892,243.621001 556,242.810412 556,241.8105 C556,240.810589 556.811892,240 557.813411,240 C558.81493,240 559.626822,240.810589 559.626822,241.8105 C559.626822,242.810412 558.81493,243.621001 557.813411,243.621001 Z M34.7201166,126.535269 C33.2178377,126.535269 32,125.319386 32,123.819518 C32,122.319651 33.2178377,121.103768 34.7201166,121.103768 C36.2223955,121.103768 37.4402332,122.319651 37.4402332,123.819518 C37.4402332,125.319386 36.2223955,126.535269 34.7201166,126.535269 Z M246.878076,230 L247.403965,233.666263 C247.458367,234.011163 247.729472,234.281833 248.074927,234.336148 L251.701749,234.870246 L248.074927,235.395291 C247.90628,235.422448 247.751233,235.501205 247.630641,235.621603 C247.511863,235.742907 247.432073,235.897705 247.403965,236.065176 L246.878076,239.731439 L246.34312,236.065176 C246.320452,235.895894 246.240662,235.739286 246.116443,235.621603 C245.995851,235.501205 245.840805,235.422448 245.672157,235.395291 L242,234.870246 L245.672157,234.336148 C245.841711,234.313517 245.998571,234.233855 246.116443,234.109836 C246.242475,233.993058 246.322265,233.83645 246.34312,233.666263 L246.878076,230 Z M117.364402,914.347004 L117.890292,918.013267 C117.944694,918.358168 118.215799,918.628838 118.561254,918.683153 L122.233411,919.21725 L118.561254,919.742295 C118.392606,919.768547 118.23756,919.848209 118.116968,919.968608 C117.99819,920.089911 117.918399,920.244709 117.890292,920.41218 L117.364402,924.078443 L116.829446,920.41218 C116.806778,920.242899 116.726988,920.08629 116.60277,919.968608 C116.482178,919.848209 116.327131,919.768547 116.158484,919.742295 L112.531662,919.21725 L116.158484,918.683153 C116.328038,918.660521 116.484898,918.580859 116.60277,918.45684 C116.728802,918.340063 116.808592,918.183454 116.829446,918.013267 L117.364402,914.347004 Z M112.823673,1062 L113.35863,1065.67532 C113.384924,1065.84369 113.464714,1065.99849 113.585306,1066.11889 C113.704085,1066.24019 113.860945,1066.31623 114.029592,1066.33615 L117.701749,1066.87025 L114.029592,1067.40434 C113.858224,1067.42879 113.698644,1067.50845 113.576239,1067.63066 C113.454741,1067.74924 113.378577,1067.90585 113.35863,1068.07423 L112.823673,1071.74049 L112.288717,1068.06518 C112.246102,1067.71937 111.973184,1067.44689 111.626822,1067.40434 L108,1066.87025 L111.626822,1066.33615 C111.972277,1066.28183 112.243382,1066.01116 112.297784,1065.66626 L112.823673,1062 Z M578.366268,950 L579.390845,957.079056 C579.441621,957.404041 579.593948,957.705489 579.826064,957.939044 C580.058181,958.171693 580.36102,958.321059 580.687434,958.364511 L587.768805,959.396497 L580.678367,960.419429 C580.351047,960.466502 580.049114,960.61949 579.816997,960.853949 C579.585787,961.087504 579.436181,961.388952 579.390845,961.713937 L578.366268,968.783941 L577.377959,961.704884 C577.280942,961.039526 576.756866,960.516291 576.090437,960.419429 L569,959.396497 L576.090437,958.364511 C576.433172,958.327396 576.753239,958.173504 576.997143,957.929991 C577.231073,957.697342 577.383399,957.395894 577.432362,957.070004 L578.366268,950 Z M443.725918,1103.58653 L444.451283,1108.61973 C444.488458,1108.84875 444.596356,1109.06149 444.759563,1109.22624 C444.926397,1109.39281 445.142192,1109.50053 445.376122,1109.53403 L450.408338,1110.26728 L445.367055,1110.99148 C445.137659,1111.0286 444.924583,1111.13632 444.759563,1111.29927 C444.590915,1111.46402 444.482111,1111.68128 444.451283,1111.91484 L443.725918,1116.93897 L442.991487,1111.90578 C442.915324,1111.44048 442.550828,1111.07657 442.084781,1111.00053 L437.043499,1110.27633 L442.084781,1109.54308 C442.314178,1109.50597 442.527254,1109.39824 442.692274,1109.2353 C442.862735,1109.07507 442.971539,1108.86052 443.000554,1108.62878 L443.725918,1103.58653 Z M73.7900583,928.873255 L75.1138484,937.998177 C75.1755044,938.415497 75.3695394,938.802944 75.6669388,939.102582 C75.9697784,939.40222 76.3605685,939.598659 76.7821866,939.663837 L85.9127114,940.985502 L76.7731195,942.307167 C75.9099359,942.433902 75.2317201,943.111029 75.1047813,943.972828 L73.7900583,953.088697 L72.4572012,943.963775 C72.3955452,943.546455 72.2015102,943.159008 71.9041108,942.85937 C71.6030845,942.561543 71.2159213,942.365103 70.79793,942.298115 L61.6583382,940.985502 L70.79793,939.654784 C71.2159213,939.593227 71.6039913,939.399504 71.9041108,939.102582 C72.2096706,938.803849 72.4073324,938.411876 72.4662682,937.989124 L73.7900583,928.873255 Z M389.282041,1262 L390.406356,1269.75799 C390.465292,1270.10108 390.630312,1270.41792 390.877843,1270.66324 C391.125373,1270.91038 391.440907,1271.07694 391.784548,1271.14303 L399.555015,1272.26554 L391.784548,1273.38805 C391.440907,1273.4487 391.124466,1273.61255 390.877843,1273.85878 C390.628499,1274.10319 390.463478,1274.42003 390.406356,1274.76403 L389.282041,1282.52202 L388.148659,1274.76403 C388.089723,1274.42094 387.924703,1274.1041 387.677172,1273.85878 C387.429641,1273.61164 387.114108,1273.44508 386.770466,1273.37899 L379,1272.26554 L386.770466,1271.13397 C387.114108,1271.07513 387.431455,1270.91038 387.677172,1270.66324 C387.926516,1270.41792 388.094257,1270.10199 388.157726,1269.75799 L389.282041,1262 Z M247.225015,1211 L248.449067,1219.44598 C248.509816,1219.83253 248.691157,1220.1901 248.965889,1220.46892 C249.242434,1220.74683 249.602397,1220.92788 249.990466,1220.98491 L258.440962,1222.207 L249.981399,1223.42908 C249.181685,1223.54224 248.553338,1224.16958 248.44,1224.96801 L247.225015,1233.40494 L245.991895,1224.95896 C245.934773,1224.57151 245.753431,1224.21213 245.475073,1223.93602 C245.198528,1223.65811 244.838566,1223.47706 244.450496,1223.42003 L236,1222.207 L244.423294,1220.95775 C244.811364,1220.90072 245.171327,1220.71967 245.447872,1220.44176 C245.72623,1220.16566 245.907571,1219.80627 245.964694,1219.41883 L247.225015,1211 Z M717.720117,1282.4315 C716.217838,1282.4315 715,1281.21562 715,1279.71575 C715,1278.21588 716.217838,1277 717.720117,1277 C719.222396,1277 720.440233,1278.21588 720.440233,1279.71575 C720.440233,1281.21562 719.222396,1282.4315 717.720117,1282.4315 Z M447.099125,934.304756 C446.097606,934.304756 445.285714,933.494167 445.285714,932.494256 C445.285714,931.494344 446.097606,930.683755 447.099125,930.683755 C448.100645,930.683755 448.912536,931.494344 448.912536,932.494256 C448.912536,933.494167 448.100645,934.304756 447.099125,934.304756 Z M55.574344,1108.22142 C54.5728247,1108.22142 53.7609329,1107.41083 53.7609329,1106.41092 C53.7609329,1105.411 54.5728247,1104.60041 55.574344,1104.60041 C56.5758633,1104.60041 57.3877551,1105.411 57.3877551,1106.41092 C57.3877551,1107.41083 56.5758633,1108.22142 55.574344,1108.22142 Z M205.180758,1033.88227 C204.179239,1033.88227 203.367347,1033.07168 203.367347,1032.07177 C203.367347,1031.07186 204.179239,1030.26127 205.180758,1030.26127 C206.182277,1030.26127 206.994169,1031.07186 206.994169,1032.07177 C206.994169,1033.07168 206.182277,1033.88227 205.180758,1033.88227 Z M63.8134111,1303.621 C62.8118918,1303.621 62,1302.81041 62,1301.8105 C62,1300.81059 62.8118918,1300 63.8134111,1300 C64.8149304,1300 65.6268222,1300.81059 65.6268222,1301.8105 C65.6268222,1302.81041 64.8149304,1303.621 63.8134111,1303.621 Z M433.157434,1009.44052 C432.155915,1009.44052 431.344023,1008.62993 431.344023,1007.63002 C431.344023,1006.63011 432.155915,1005.81952 433.157434,1005.81952 C434.158954,1005.81952 434.970845,1006.63011 434.970845,1007.63002 C434.970845,1008.62993 434.158954,1009.44052 433.157434,1009.44052 Z M561.813411,1037.621 C560.811892,1037.621 560,1036.81041 560,1035.8105 C560,1034.81059 560.811892,1034 561.813411,1034 C562.81493,1034 563.626822,1034.81059 563.626822,1035.8105 C563.626822,1036.81041 562.81493,1037.621 561.813411,1037.621 Z M360.813411,997.621001 C359.811892,997.621001 359,996.810412 359,995.8105 C359,994.810589 359.811892,994 360.813411,994 C361.81493,994 362.626822,994.810589 362.626822,995.8105 C362.626822,996.810412 361.81493,997.621001 360.813411,997.621001 Z M217.813411,1273.621 C216.811892,1273.621 216,1272.81041 216,1271.8105 C216,1270.81059 216.811892,1270 217.813411,1270 C218.81493,1270 219.626822,1270.81059 219.626822,1271.8105 C219.626822,1272.81041 218.81493,1273.621 217.813411,1273.621 Z M197.020408,975.041013 C196.018889,975.041013 195.206997,974.230424 195.206997,973.230513 C195.206997,972.230601 196.018889,971.420012 197.020408,971.420012 C198.021927,971.420012 198.833819,972.230601 198.833819,973.230513 C198.833819,974.230424 198.021927,975.041013 197.020408,975.041013 Z M387.813411,935.621001 C386.811892,935.621001 386,934.810412 386,933.8105 C386,932.810589 386.811892,932 387.813411,932 C388.81493,932 389.626822,932.810589 389.626822,933.8105 C389.626822,934.810412 388.81493,935.621001 387.813411,935.621001 Z M691.813411,950.621001 C690.811892,950.621001 690,949.810412 690,948.8105 C690,947.810589 690.811892,947 691.813411,947 C692.81493,947 693.626822,947.810589 693.626822,948.8105 C693.626822,949.810412 692.81493,950.621001 691.813411,950.621001 Z M91.6449563,1199.27821 C89.6319025,1199.27821 88,1197.64893 88,1195.63911 C88,1193.62928 89.6319025,1192 91.6449563,1192 C93.65801,1192 95.2899125,1193.62928 95.2899125,1195.63911 C95.2899125,1197.64893 93.65801,1199.27821 91.6449563,1199.27821 Z M643.720117,1030.4315 C642.217838,1030.4315 641,1029.21562 641,1027.71575 C641,1026.21588 642.217838,1025 643.720117,1025 C645.222396,1025 646.440233,1026.21588 646.440233,1027.71575 C646.440233,1029.21562 645.222396,1030.4315 643.720117,1030.4315 Z M163.720117,1211.4315 C162.217838,1211.4315 161,1210.21562 161,1208.71575 C161,1207.21588 162.217838,1206 163.720117,1206 C165.222396,1206 166.440233,1207.21588 166.440233,1208.71575 C166.440233,1210.21562 165.222396,1211.4315 163.720117,1211.4315 Z M351.16035,1047.33428 C349.658071,1047.33428 348.440233,1046.1184 348.440233,1044.61853 C348.440233,1043.11866 349.658071,1041.90278 351.16035,1041.90278 C352.662629,1041.90278 353.880466,1043.11866 353.880466,1044.61853 C353.880466,1046.1184 352.662629,1047.33428 351.16035,1047.33428 Z M284.06414,947.883508 C282.561861,947.883508 281.344023,946.667625 281.344023,945.167758 C281.344023,943.66789 282.561861,942.452007 284.06414,942.452007 C285.566419,942.452007 286.784257,943.66789 286.784257,945.167758 C286.784257,946.667625 285.566419,947.883508 284.06414,947.883508 Z M332.119534,1169.6698 C330.617255,1169.6698 329.399417,1168.45391 329.399417,1166.95405 C329.399417,1165.45418 330.617255,1164.23829 332.119534,1164.23829 C333.621812,1164.23829 334.83965,1165.45418 334.83965,1166.95405 C334.83965,1168.45391 333.621812,1169.6698 332.119534,1169.6698 Z M534.720117,1206.4315 C533.217838,1206.4315 532,1205.21562 532,1203.71575 C532,1202.21588 533.217838,1201 534.720117,1201 C536.222396,1201 537.440233,1202.21588 537.440233,1203.71575 C537.440233,1205.21562 536.222396,1206.4315 534.720117,1206.4315 Z M626.929475,1061.96313 C625.927956,1061.96313 625.116064,1061.15254 625.116064,1060.15263 C625.116064,1059.15272 625.927956,1058.34213 626.929475,1058.34213 C627.930995,1058.34213 628.742886,1059.15272 628.742886,1060.15263 C628.742886,1061.15254 627.930995,1061.96313 626.929475,1061.96313 Z M627.720117,1211.4315 C626.217838,1211.4315 625,1210.21562 625,1208.71575 C625,1207.21588 626.217838,1206 627.720117,1206 C629.222396,1206 630.440233,1207.21588 630.440233,1208.71575 C630.440233,1210.21562 629.222396,1211.4315 627.720117,1211.4315 Z M537.720117,1323.4315 C536.217838,1323.4315 535,1322.21562 535,1320.71575 C535,1319.21588 536.217838,1318 537.720117,1318 C539.222396,1318 540.440233,1319.21588 540.440233,1320.71575 C540.440233,1322.21562 539.222396,1323.4315 537.720117,1323.4315 Z M699.813411,1169.621 C698.811892,1169.621 698,1168.81041 698,1167.8105 C698,1166.81059 698.811892,1166 699.813411,1166 C700.81493,1166 701.626822,1166.81059 701.626822,1167.8105 C701.626822,1168.81041 700.81493,1169.621 699.813411,1169.621 Z M316.468863,1112.93301 C315.657632,1112.93301 315,1112.27643 315,1111.46651 C315,1110.65658 315.657632,1110 316.468863,1110 C317.280094,1110 317.937726,1110.65658 317.937726,1111.46651 C317.937726,1112.27643 317.280094,1112.93301 316.468863,1112.93301 Z M557.813411,1125.621 C556.811892,1125.621 556,1124.81041 556,1123.8105 C556,1122.81059 556.811892,1122 557.813411,1122 C558.81493,1122 559.626822,1122.81059 559.626822,1123.8105 C559.626822,1124.81041 558.81493,1125.621 557.813411,1125.621 Z M34.7201166,1008.53527 C33.2178377,1008.53527 32,1007.31939 32,1005.81952 C32,1004.31965 33.2178377,1003.10377 34.7201166,1003.10377 C36.2223955,1003.10377 37.4402332,1004.31965 37.4402332,1005.81952 C37.4402332,1007.31939 36.2223955,1008.53527 34.7201166,1008.53527 Z M246.878076,1112 L247.403965,1115.66626 C247.458367,1116.01116 247.729472,1116.28183 248.074927,1116.33615 L251.701749,1116.87025 L248.074927,1117.39529 C247.90628,1117.42245 247.751233,1117.50121 247.630641,1117.6216 C247.511863,1117.74291 247.432073,1117.8977 247.403965,1118.06518 L246.878076,1121.73144 L246.34312,1118.06518 C246.320452,1117.89589 246.240662,1117.73929 246.116443,1117.6216 C245.995851,1117.50121 245.840805,1117.42245 245.672157,1117.39529 L242,1116.87025 L245.672157,1116.33615 C245.841711,1116.31352 245.998571,1116.23385 246.116443,1116.10984 C246.242475,1115.99306 246.322265,1115.83645 246.34312,1115.66626 L246.878076,1112 Z M635.075831,882.431501 L634.549942,878.765238 C634.495539,878.420337 634.224434,878.149668 633.87898,878.095353 L630.206822,877.561255 L633.87898,877.03621 C634.047627,877.009958 634.202673,876.930296 634.323265,876.809897 C634.442044,876.688594 634.521834,876.533796 634.549942,876.366325 L635.075831,872.700062 L635.610787,876.366325 C635.633455,876.535607 635.713245,876.692215 635.837464,876.809897 C635.958055,876.930296 636.113102,877.009958 636.281749,877.03621 L639.908571,877.561255 L636.281749,878.095353 C636.112195,878.117984 635.955335,878.197646 635.837464,878.321665 C635.711431,878.438442 635.631641,878.595051 635.610787,878.765238 L635.075831,882.431501 Z M639.61656,734.778505 L639.081603,731.10319 C639.055309,730.934813 638.975519,730.780015 638.854927,730.659617 C638.736149,730.538313 638.579289,730.462272 638.410641,730.442357 L634.738484,729.908259 L638.410641,729.374162 C638.582009,729.34972 638.741589,729.270058 638.863994,729.147849 C638.985493,729.029261 639.061656,728.872653 639.081603,728.704277 L639.61656,725.038014 L640.151516,728.713329 C640.194131,729.059135 640.46705,729.331615 640.813411,729.374162 L644.440233,729.908259 L640.813411,730.442357 C640.467956,730.496672 640.196851,730.767342 640.142449,731.112242 L639.61656,734.778505 Z M174.073965,846.778505 L173.049388,839.699449 C172.998612,839.374464 172.846286,839.073016 172.614169,838.839461 C172.382052,838.606812 172.079213,838.457446 171.752799,838.413994 L164.671429,837.382009 L171.761866,836.359076 C172.089187,836.312003 172.39112,836.159016 172.623236,835.924556 C172.854446,835.691001 173.004052,835.389553 173.049388,835.064568 L174.073965,827.994565 L175.062274,835.073621 C175.159292,835.73898 175.683367,836.262214 176.349796,836.359076 L183.440233,837.382009 L176.349796,838.413994 C176.007061,838.451109 175.686994,838.605002 175.44309,838.848514 C175.20916,839.081163 175.056834,839.382611 175.007872,839.708502 L174.073965,846.778505 Z M308.714315,693.191971 L307.98895,688.15878 C307.951776,687.929751 307.843878,687.717018 307.680671,687.552262 C307.513837,687.385696 307.298041,687.277971 307.064111,687.244477 L302.031895,686.511224 L307.073178,685.787024 C307.302574,685.749909 307.51565,685.642184 307.680671,685.479239 C307.849318,685.314484 307.958122,685.097224 307.98895,684.863669 L308.714315,679.839531 L309.448746,684.872722 C309.52491,685.33802 309.889405,685.701931 310.355452,685.777972 L315.396735,686.502172 L310.355452,687.235425 C310.126055,687.27254 309.91298,687.380265 309.747959,687.54321 C309.577499,687.703439 309.468694,687.917983 309.439679,688.149727 L308.714315,693.191971 Z M678.650175,867.90525 L677.326385,858.780329 C677.264729,858.363008 677.070694,857.975561 676.773294,857.675923 C676.470455,857.376286 676.079665,857.179846 675.658047,857.114668 L666.527522,855.793003 L675.667114,854.471338 C676.530297,854.344603 677.208513,853.667476 677.335452,852.805678 L678.650175,843.689809 L679.983032,852.81473 C680.044688,853.23205 680.238723,853.619497 680.536122,853.919135 C680.837149,854.216963 681.224312,854.413402 681.642303,854.48039 L690.781895,855.793003 L681.642303,857.123721 C681.224312,857.185278 680.836242,857.379001 680.536122,857.675923 C680.230563,857.974656 680.032901,858.366629 679.973965,858.789381 L678.650175,867.90525 Z M363.158192,534.778505 L362.033878,527.020511 C361.974942,526.677422 361.809921,526.360584 361.562391,526.115261 C361.31486,525.868128 360.999327,525.701562 360.655685,525.635479 L352.885219,524.512968 L360.655685,523.390458 C360.999327,523.329807 361.315767,523.165956 361.562391,522.919728 C361.811735,522.675311 361.976755,522.358473 362.033878,522.014478 L363.158192,514.256484 L364.291574,522.014478 C364.35051,522.357568 364.515531,522.674405 364.763061,522.919728 C365.010592,523.166861 365.326125,523.333428 365.669767,523.399511 L373.440233,524.512968 L365.669767,525.644531 C365.326125,525.703372 365.008778,525.868128 364.763061,526.115261 C364.513717,526.360584 364.345977,526.676516 364.282507,527.020511 L363.158192,534.778505 Z M505.215219,585.778505 L503.991166,577.332521 C503.930417,576.945979 503.749076,576.588406 503.474344,576.309589 C503.197799,576.031677 502.837837,575.850627 502.449767,575.793596 L493.999271,574.571508 L502.458834,573.349421 C503.258548,573.236264 503.886895,572.608926 504.000233,571.810495 L505.215219,563.373564 L506.448338,571.819548 C506.505461,572.206995 506.686802,572.566379 506.96516,572.842481 C507.241706,573.120392 507.601668,573.301442 507.989738,573.358473 L516.440233,574.571508 L508.016939,575.820754 C507.628869,575.877784 507.268907,576.058834 506.992362,576.336746 C506.714003,576.612847 506.532662,576.972232 506.475539,577.359679 L505.215219,585.778505 Z M34.7201166,514.347004 C36.2223955,514.347004 37.4402332,515.562887 37.4402332,517.062755 C37.4402332,518.562622 36.2223955,519.778505 34.7201166,519.778505 C33.2178377,519.778505 32,518.562622 32,517.062755 C32,515.562887 33.2178377,514.347004 34.7201166,514.347004 Z M305.341108,862.473749 C306.342627,862.473749 307.154519,863.284338 307.154519,864.28425 C307.154519,865.284161 306.342627,866.09475 305.341108,866.09475 C304.339589,866.09475 303.527697,865.284161 303.527697,864.28425 C303.527697,863.284338 304.339589,862.473749 305.341108,862.473749 Z M696.865889,688.55709 C697.867408,688.55709 698.6793,689.367678 698.6793,690.36759 C698.6793,691.367502 697.867408,692.17809 696.865889,692.17809 C695.86437,692.17809 695.052478,691.367502 695.052478,690.36759 C695.052478,689.367678 695.86437,688.55709 696.865889,688.55709 Z M547.259475,762.896232 C548.260995,762.896232 549.072886,763.706821 549.072886,764.706733 C549.072886,765.706644 548.260995,766.517233 547.259475,766.517233 C546.257956,766.517233 545.446064,765.706644 545.446064,764.706733 C545.446064,763.706821 546.257956,762.896232 547.259475,762.896232 Z M688.626822,493.157505 C689.628341,493.157505 690.440233,493.968093 690.440233,494.968005 C690.440233,495.967917 689.628341,496.778505 688.626822,496.778505 C687.625303,496.778505 686.813411,495.967917 686.813411,494.968005 C686.813411,493.968093 687.625303,493.157505 688.626822,493.157505 Z M319.282799,787.337987 C320.284318,787.337987 321.09621,788.148575 321.09621,789.148487 C321.09621,790.148399 320.284318,790.958987 319.282799,790.958987 C318.28128,790.958987 317.469388,790.148399 317.469388,789.148487 C317.469388,788.148575 318.28128,787.337987 319.282799,787.337987 Z M190.626822,759.157505 C191.628341,759.157505 192.440233,759.968093 192.440233,760.968005 C192.440233,761.967917 191.628341,762.778505 190.626822,762.778505 C189.625303,762.778505 188.813411,761.967917 188.813411,760.968005 C188.813411,759.968093 189.625303,759.157505 190.626822,759.157505 Z M391.626822,799.157505 C392.628341,799.157505 393.440233,799.968093 393.440233,800.968005 C393.440233,801.967917 392.628341,802.778505 391.626822,802.778505 C390.625303,802.778505 389.813411,801.967917 389.813411,800.968005 C389.813411,799.968093 390.625303,799.157505 391.626822,799.157505 Z M534.626822,523.157505 C535.628341,523.157505 536.440233,523.968093 536.440233,524.968005 C536.440233,525.967917 535.628341,526.778505 534.626822,526.778505 C533.625303,526.778505 532.813411,525.967917 532.813411,524.968005 C532.813411,523.968093 533.625303,523.157505 534.626822,523.157505 Z M555.419825,821.737492 C556.421344,821.737492 557.233236,822.548081 557.233236,823.547993 C557.233236,824.547904 556.421344,825.358493 555.419825,825.358493 C554.418306,825.358493 553.606414,824.547904 553.606414,823.547993 C553.606414,822.548081 554.418306,821.737492 555.419825,821.737492 Z M364.626822,861.157505 C365.628341,861.157505 366.440233,861.968093 366.440233,862.968005 C366.440233,863.967917 365.628341,864.778505 364.626822,864.778505 C363.625303,864.778505 362.813411,863.967917 362.813411,862.968005 C362.813411,861.968093 363.625303,861.157505 364.626822,861.157505 Z M60.6268222,846.157505 C61.6283414,846.157505 62.4402332,846.968093 62.4402332,847.968005 C62.4402332,848.967917 61.6283414,849.778505 60.6268222,849.778505 C59.6253029,849.778505 58.8134111,848.967917 58.8134111,847.968005 C58.8134111,846.968093 59.6253029,846.157505 60.6268222,846.157505 Z M660.795277,597.500294 C662.808331,597.500294 664.440233,599.129577 664.440233,601.1394 C664.440233,603.149222 662.808331,604.778505 660.795277,604.778505 C658.782223,604.778505 657.150321,603.149222 657.150321,601.1394 C657.150321,599.129577 658.782223,597.500294 660.795277,597.500294 Z M108.720117,766.347004 C110.222396,766.347004 111.440233,767.562887 111.440233,769.062755 C111.440233,770.562622 110.222396,771.778505 108.720117,771.778505 C107.217838,771.778505 106,770.562622 106,769.062755 C106,767.562887 107.217838,766.347004 108.720117,766.347004 Z M588.720117,585.347004 C590.222396,585.347004 591.440233,586.562887 591.440233,588.062755 C591.440233,589.562622 590.222396,590.778505 588.720117,590.778505 C587.217838,590.778505 586,589.562622 586,588.062755 C586,586.562887 587.217838,585.347004 588.720117,585.347004 Z M401.279883,749.444225 C402.782162,749.444225 404,750.660108 404,752.159975 C404,753.659843 402.782162,754.875726 401.279883,754.875726 C399.777604,754.875726 398.559767,753.659843 398.559767,752.159975 C398.559767,750.660108 399.777604,749.444225 401.279883,749.444225 Z M468.376093,848.894997 C469.878372,848.894997 471.09621,850.11088 471.09621,851.610747 C471.09621,853.110615 469.878372,854.326498 468.376093,854.326498 C466.873814,854.326498 465.655977,853.110615 465.655977,851.610747 C465.655977,850.11088 466.873814,848.894997 468.376093,848.894997 Z M420.3207,627.108709 C421.822979,627.108709 423.040816,628.324592 423.040816,629.82446 C423.040816,631.324327 421.822979,632.54021 420.3207,632.54021 C418.818421,632.54021 417.600583,631.324327 417.600583,629.82446 C417.600583,628.324592 418.818421,627.108709 420.3207,627.108709 Z M217.720117,590.347004 C219.222396,590.347004 220.440233,591.562887 220.440233,593.062755 C220.440233,594.562622 219.222396,595.778505 217.720117,595.778505 C216.217838,595.778505 215,594.562622 215,593.062755 C215,591.562887 216.217838,590.347004 217.720117,590.347004 Z M125.510758,734.815373 C126.512277,734.815373 127.324169,735.625961 127.324169,736.625873 C127.324169,737.625785 126.512277,738.436373 125.510758,738.436373 C124.509239,738.436373 123.697347,737.625785 123.697347,736.625873 C123.697347,735.625961 124.509239,734.815373 125.510758,734.815373 Z M124.720117,585.347004 C126.222396,585.347004 127.440233,586.562887 127.440233,588.062755 C127.440233,589.562622 126.222396,590.778505 124.720117,590.778505 C123.217838,590.778505 122,589.562622 122,588.062755 C122,586.562887 123.217838,585.347004 124.720117,585.347004 Z M214.720117,473.347004 C216.222396,473.347004 217.440233,474.562887 217.440233,476.062755 C217.440233,477.562622 216.222396,478.778505 214.720117,478.778505 C213.217838,478.778505 212,477.562622 212,476.062755 C212,474.562887 213.217838,473.347004 214.720117,473.347004 Z M52.6268222,627.157505 C53.6283414,627.157505 54.4402332,627.968093 54.4402332,628.968005 C54.4402332,629.967917 53.6283414,630.778505 52.6268222,630.778505 C51.6253029,630.778505 50.8134111,629.967917 50.8134111,628.968005 C50.8134111,627.968093 51.6253029,627.157505 52.6268222,627.157505 Z M435.97137,683.845495 C436.782601,683.845495 437.440233,684.502071 437.440233,685.312 C437.440233,686.121928 436.782601,686.778505 435.97137,686.778505 C435.16014,686.778505 434.502507,686.121928 434.502507,685.312 C434.502507,684.502071 435.16014,683.845495 435.97137,683.845495 Z M194.626822,671.157505 C195.628341,671.157505 196.440233,671.968093 196.440233,672.968005 C196.440233,673.967917 195.628341,674.778505 194.626822,674.778505 C193.625303,674.778505 192.813411,673.967917 192.813411,672.968005 C192.813411,671.968093 193.625303,671.157505 194.626822,671.157505 Z M717.720117,788.243237 C719.222396,788.243237 720.440233,789.45912 720.440233,790.958987 C720.440233,792.458855 719.222396,793.674738 717.720117,793.674738 C716.217838,793.674738 715,792.458855 715,790.958987 C715,789.45912 716.217838,788.243237 717.720117,788.243237 Z M505.562157,684.778505 L505.036268,681.112242 C504.981866,680.767342 504.710761,680.496672 504.365306,680.442357 L500.738484,679.908259 L504.365306,679.383214 C504.533953,679.356057 504.689,679.2773 504.809592,679.156902 C504.92837,679.035598 505.00816,678.8808 505.036268,678.713329 L505.562157,675.047066 L506.097114,678.713329 C506.119781,678.882611 506.199571,679.039219 506.32379,679.156902 C506.444382,679.2773 506.599429,679.356057 506.768076,679.383214 L510.440233,679.908259 L506.768076,680.442357 C506.598522,680.464988 506.441662,680.54465 506.32379,680.66867 C506.197758,680.785447 506.117968,680.942055 506.097114,681.112242 L505.562157,684.778505 Z" id="Combined-Shape" fill="url(#linearGradient-1)" fill-rule="nonzero"></path>
                <g id="Group" transform="translate(151.000000, 320.000000)">
                    <rect id="Rectangle" fill="#D8D8D8" opacity="0" x="0" y="0" width="448" height="448"></rect>
                    <path d="M145.800346,131.126308 L167.891308,48.8727273 L195.387505,48.8727273 L173.296543,131.126308 L145.800346,131.126308 Z M182.461942,131.126308 L204.552904,48.8727273 L230.286524,48.8727273 L248.969837,88.1194356 L259.545297,48.8727273 L286.806484,48.8727273 L264.715522,131.126308 L240.274458,131.126308 L220.768609,90.2345276 L209.723129,131.126308 L182.461942,131.126308 Z M34.1704873,219.255143 L56.2614489,137.001563 L83.4051304,137.001563 L93.27556,165.907821 L118.656665,137.001563 L148.855479,137.001563 L126.764518,219.255143 L99.3858259,219.255143 L110.313802,178.480869 L83.5226355,207.739642 L83.052615,207.739642 L72.0071342,178.480869 L61.0791586,219.255143 L34.1704873,219.255143 Z M129.232125,219.255143 L186.104601,136.414038 L213.365787,136.414038 L225.821329,219.255143 L196.562556,219.255143 L195.152494,208.209663 L166.363741,208.209663 L159.195929,219.255143 L129.232125,219.255143 Z M178.584273,188.703814 L193.624928,188.703814 L191.392331,168.727944 L178.584273,188.703814 Z M238.276871,219.255143 L254.140062,160.267576 L229.934008,160.267576 L236.161779,137.001563 L312.070083,137.001563 L305.842312,160.267576 L281.636259,160.267576 L265.773068,219.255143 L238.276871,219.255143 Z M295.971883,219.255143 L318.062844,137.001563 L345.559041,137.001563 L337.686198,166.025327 L362.832293,166.025327 L370.705136,137.001563 L398.201332,137.001563 L376.110371,219.255143 L348.614174,219.255143 L356.487017,189.76136 L331.340922,189.76136 L323.46808,219.255143 L295.971883,219.255143 Z M126.82327,307.971505 L122.123066,225.130399 L150.324293,225.130399 L151.381839,264.612118 L175.235377,224.895389 L198.971411,224.895389 L201.674028,264.612118 L223.882495,225.130399 L252.788753,225.130399 L203.671615,307.971505 L179.700572,307.971505 L176.175418,267.079725 L150.794314,307.971505 L126.82327,307.971505 Z M234.457955,307.383979 L256.548917,225.130399 L326.69947,225.130399 L320.589204,247.691381 L277.464827,247.691381 L275.23223,256.034244 L315.418979,256.034244 L310.131249,275.892609 L269.9445,275.892609 L267.476892,284.822997 L311.188795,284.822997 L305.196034,307.383979 L234.457955,307.383979 Z M28.7064995,395.512815 L44.56969,336.525248 L20.3636364,336.525248 L26.5914074,313.259235 L102.499711,313.259235 L96.2719404,336.525248 L72.0658868,336.525248 L56.2026963,395.512815 L28.7064995,395.512815 Z M136.223679,395.512815 L127.05828,372.011792 L120.242984,372.011792 L113.897708,395.512815 L86.4015108,395.512815 L108.492472,313.259235 L140.571369,313.259235 C155.729528,313.259235 165.364948,316.549378 170.887688,322.072119 C175.470388,326.654818 177.350469,332.765084 177.350469,339.227865 C177.350469,346.983203 175.000367,353.916005 169.360122,359.55625 C165.834968,363.081404 161.017259,366.019032 154.436972,368.134124 L165.834968,395.512815 L136.223679,395.512815 Z M125.413209,352.388438 L135.401144,352.388438 C140.806379,352.388438 144.801553,350.860872 147.03415,348.628275 C148.561716,347.100708 149.384252,345.103121 149.384252,342.988029 C149.384252,341.342958 148.796727,339.815391 147.621675,338.64034 C146.094109,337.112773 143.391491,336.290238 139.513823,336.290238 L129.760898,336.290238 L125.413209,352.388438 Z M214.364581,397.157887 C191.216073,397.157887 178.760531,386.112406 178.760531,367.546598 C178.760531,363.316414 179.348056,358.733715 180.523108,354.26852 L191.568588,313.259235 L219.534806,313.259235 L208.019304,356.031097 C207.431779,358.381199 207.079263,360.613796 207.079263,362.493878 C207.079263,369.309175 211.074437,372.834328 218.359754,372.834328 C221.767403,372.834328 224.940041,371.659277 227.172638,369.42668 C229.640246,366.959073 231.285317,363.786434 233.047894,357.441158 L244.91591,313.259235 L272.882128,313.259235 L259.83906,361.671342 C256.901432,372.599318 252.671248,380.589666 246.913497,386.347416 C239.15816,394.102754 227.407648,397.157887 214.364581,397.157887 Z M299.438284,397.157887 C283.105073,397.157887 268.886954,391.282631 258.899019,382.234737 L274.644704,363.433919 C284.045114,371.306762 293.680533,375.066925 302.375911,375.066925 C305.901065,375.066925 308.368672,373.774369 308.368672,371.424267 C308.368672,368.839154 306.841106,368.016619 294.855584,363.551424 C279.579919,357.911179 272.412107,352.505943 272.412107,340.402917 C272.412107,333.470115 275.23223,327.124839 280.167445,322.189624 C286.630226,315.726843 296.735666,311.614164 309.426218,311.614164 C324.114358,311.614164 337.157425,316.314368 346.087814,323.952201 L330.342129,342.753019 C324.114358,337.700299 315.301474,333.58762 306.606096,333.58762 C303.080942,333.58762 300.613335,334.527661 300.613335,336.877763 C300.613335,339.345371 302.375911,339.815391 313.773908,344.045575 C327.757016,349.2158 336.687405,355.091056 336.687405,367.664103 C336.687405,375.066925 333.984787,381.764717 328.814562,386.934942 C322.586791,393.162713 312.481351,397.157887 299.438284,397.157887 Z M353.843152,395.512815 L369.706342,336.525248 L345.500289,336.525248 L351.72806,313.259235 L427.636364,313.259235 L421.408593,336.525248 L397.202539,336.525248 L381.339348,395.512815 L353.843152,395.512815 Z" id="INMATHWETRUST" fill="#FFFFFF" fill-rule="nonzero"></path>
                </g>
            </g>
        </g>
    </g>
</svg>